# xmcd
#
# Track frame offsets:
#	150
#	12500
#	22891
#	34964
#	51711
#	64278
#	75352
#	90358
#	104880
#	120135
#	131229
#
# Disc length: 1954 seconds
#
# Revision: 1
# Processed by: cddbd v1.5.2PL0 Copyright (c) Steve Scherf et al.
# Submitted via: audiograbber 1.83.01
#
DISCID=9007a00b
DTITLE=Hybrid Children - Fight as one
DYEAR=2009
DGENRE=Punk
TTITLE0=Fight As One
TTITLE1=Medicine Train
TTITLE2=Deathbreath Dynamo
TTITLE3=Dancing On Roses
TTITLE4=Worldwide Checkmate
TTITLE5=Blackheart Baby
TTITLE6=Fire Always Burns In Us
TTITLE7=These Are The Moments I'm Living For
TTITLE8=Dropzone Of Black Snow
TTITLE9=Motörbreath
TTITLE10=Out On The Wasteland
EXTD=
EXTT0=
EXTT1=
EXTT2=
EXTT3=
EXTT4=
EXTT5=
EXTT6=
EXTT7=
EXTT8=
EXTT9=
EXTT10=
PLAYORDER=
